<svg xmlns="http://www.w3.org/2000/svg" xmlns:xlink="http://www.w3.org/1999/xlink" width="1080" zoomAndPan="magnify" viewBox="0 0 810 809.999993" height="1080" preserveAspectRatio="xMidYMid meet" version="1.0"><defs><clipPath id="8c560cc328"><path d="M 137.808594 151.171875 L 145.558594 151.171875 L 145.558594 154.921875 L 137.808594 154.921875 Z M 137.808594 151.171875 " clip-rule="nonzero"/></clipPath></defs><path fill="#ffffff" d="M 405 0 C 398.371094 0 391.746094 0.164062 385.128906 0.488281 C 378.507812 0.8125 371.898438 1.300781 365.304688 1.949219 C 358.707031 2.601562 352.128906 3.410156 345.574219 4.382812 C 339.019531 5.355469 332.488281 6.488281 325.988281 7.78125 C 319.488281 9.074219 313.023438 10.527344 306.59375 12.136719 C 300.164062 13.746094 293.777344 15.515625 287.433594 17.4375 C 281.09375 19.363281 274.800781 21.441406 268.558594 23.675781 C 262.320312 25.90625 256.136719 28.292969 250.011719 30.828125 C 243.890625 33.367188 237.832031 36.050781 231.839844 38.882812 C 225.847656 41.71875 219.929688 44.699219 214.085938 47.820312 C 208.238281 50.945312 202.472656 54.210938 196.789062 57.621094 C 191.101562 61.027344 185.503906 64.574219 179.992188 68.253906 C 174.484375 71.9375 169.066406 75.753906 163.742188 79.699219 C 158.417969 83.648438 153.195312 87.726562 148.070312 91.929688 C 142.945312 96.136719 137.929688 100.464844 133.019531 104.914062 C 128.109375 109.367188 123.308594 113.933594 118.621094 118.621094 C 113.933594 123.308594 109.367188 128.109375 104.914062 133.019531 C 100.464844 137.929688 96.136719 142.945312 91.929688 148.070312 C 87.726562 153.195312 83.648438 158.417969 79.699219 163.742188 C 75.753906 169.066406 71.9375 174.484375 68.253906 179.992188 C 64.574219 185.503906 61.027344 191.101562 57.621094 196.789062 C 54.210938 202.472656 50.945312 208.238281 47.820312 214.085938 C 44.699219 219.929688 41.71875 225.847656 38.882812 231.839844 C 36.050781 237.832031 33.363281 243.890625 30.828125 250.011719 C 28.292969 256.136719 25.90625 262.320312 23.675781 268.558594 C 21.441406 274.800781 19.363281 281.09375 17.4375 287.433594 C 15.515625 293.777344 13.746094 300.164062 12.136719 306.59375 C 10.527344 313.023438 9.074219 319.488281 7.78125 325.988281 C 6.488281 332.488281 5.355469 339.019531 4.382812 345.574219 C 3.410156 352.128906 2.601562 358.707031 1.949219 365.304688 C 1.300781 371.898438 0.8125 378.507812 0.488281 385.128906 C 0.164062 391.746094 0 398.371094 0 405 C 0 411.628906 0.164062 418.253906 0.488281 424.871094 C 0.8125 431.492188 1.300781 438.101562 1.949219 444.695312 C 2.601562 451.292969 3.410156 457.871094 4.382812 464.425781 C 5.355469 470.980469 6.488281 477.511719 7.78125 484.011719 C 9.074219 490.511719 10.527344 496.976562 12.136719 503.40625 C 13.746094 509.835938 15.515625 516.222656 17.4375 522.566406 C 19.363281 528.90625 21.441406 535.199219 23.675781 541.441406 C 25.90625 547.679688 28.292969 553.863281 30.828125 559.988281 C 33.363281 566.109375 36.050781 572.167969 38.882812 578.160156 C 41.71875 584.152344 44.699219 590.070312 47.820312 595.914062 C 50.945312 601.761719 54.210938 607.527344 57.621094 613.210938 C 61.027344 618.898438 64.574219 624.496094 68.253906 630.007812 C 71.9375 635.515625 75.753906 640.933594 79.699219 646.257812 C 83.648438 651.582031 87.726562 656.804688 91.929688 661.929688 C 96.136719 667.054688 100.464844 672.070312 104.914062 676.980469 C 109.367188 681.890625 113.933594 686.691406 118.621094 691.378906 C 123.308594 696.066406 128.109375 700.632812 133.019531 705.085938 C 137.929688 709.535156 142.945312 713.863281 148.070312 718.070312 C 153.195312 722.273438 158.417969 726.351562 163.742188 730.300781 C 169.066406 734.246094 174.484375 738.0625 179.992188 741.746094 C 185.503906 745.425781 191.101562 748.972656 196.789062 752.378906 C 202.472656 755.789062 208.238281 759.054688 214.085938 762.179688 C 219.929688 765.300781 225.847656 768.28125 231.839844 771.117188 C 237.832031 773.949219 243.890625 776.632812 250.011719 779.171875 C 256.136719 781.707031 262.320312 784.09375 268.558594 786.324219 C 274.800781 788.558594 281.09375 790.636719 287.433594 792.5625 C 293.777344 794.484375 300.164062 796.253906 306.59375 797.863281 C 313.023438 799.472656 319.488281 800.925781 325.988281 802.21875 C 332.488281 803.511719 339.019531 804.644531 345.574219 805.617188 C 352.128906 806.589844 358.707031 807.398438 365.304688 808.050781 C 371.898438 808.699219 378.507812 809.1875 385.128906 809.511719 C 391.746094 809.835938 398.371094 810 405 810 C 411.628906 810 418.253906 809.835938 424.871094 809.511719 C 431.492188 809.1875 438.101562 808.699219 444.695312 808.050781 C 451.292969 807.398438 457.871094 806.589844 464.425781 805.617188 C 470.980469 804.644531 477.511719 803.511719 484.011719 802.21875 C 490.511719 800.925781 496.976562 799.472656 503.40625 797.863281 C 509.835938 796.253906 516.222656 794.484375 522.566406 792.5625 C 528.90625 790.636719 535.199219 788.558594 541.441406 786.324219 C 547.679688 784.09375 553.863281 781.707031 559.988281 779.171875 C 566.109375 776.632812 572.167969 773.949219 578.160156 771.117188 C 584.152344 768.28125 590.070312 765.300781 595.914062 762.179688 C 601.761719 759.054688 607.527344 755.789062 613.210938 752.378906 C 618.898438 748.972656 624.496094 745.425781 630.003906 741.746094 C 635.515625 738.0625 640.933594 734.246094 646.257812 730.300781 C 651.582031 726.351562 656.804688 722.273438 661.929688 718.070312 C 667.054688 713.863281 672.070312 709.535156 676.980469 705.085938 C 681.890625 700.632812 686.691406 696.066406 691.378906 691.378906 C 696.066406 686.691406 700.632812 681.890625 705.085938 676.980469 C 709.535156 672.070312 713.863281 667.054688 718.070312 661.929688 C 722.273438 656.804688 726.351562 651.582031 730.300781 646.257812 C 734.246094 640.933594 738.0625 635.515625 741.746094 630.007812 C 745.425781 624.496094 748.972656 618.898438 752.378906 613.210938 C 755.789062 607.527344 759.054688 601.761719 762.179688 595.914062 C 765.300781 590.070312 768.28125 584.152344 771.117188 578.160156 C 773.949219 572.167969 776.632812 566.109375 779.171875 559.988281 C 781.707031 553.863281 784.09375 547.679688 786.324219 541.441406 C 788.558594 535.199219 790.636719 528.90625 792.5625 522.566406 C 794.484375 516.222656 796.253906 509.835938 797.863281 503.40625 C 799.472656 496.976562 800.925781 490.511719 802.21875 484.011719 C 803.511719 477.511719 804.644531 470.980469 805.617188 464.425781 C 806.589844 457.871094 807.398438 451.292969 808.050781 444.695312 C 808.699219 438.101562 809.1875 431.492188 809.511719 424.871094 C 809.835938 418.253906 810 411.628906 810 405 C 809.992188 398.375 809.824219 391.75 809.492188 385.132812 C 809.160156 378.515625 808.664062 371.910156 808.007812 365.316406 C 807.355469 358.722656 806.535156 352.148438 805.558594 345.597656 C 804.582031 339.042969 803.441406 332.515625 802.144531 326.019531 C 800.847656 319.519531 799.390625 313.058594 797.773438 306.632812 C 796.160156 300.207031 794.390625 293.824219 792.460938 287.484375 C 790.535156 281.144531 788.453125 274.855469 786.214844 268.617188 C 783.980469 262.382812 781.589844 256.203125 779.050781 250.082031 C 776.511719 243.960938 773.824219 237.90625 770.988281 231.917969 C 768.152344 225.929688 765.171875 220.015625 762.046875 214.171875 C 758.921875 208.328125 755.652344 202.566406 752.246094 196.886719 C 748.835938 191.203125 745.292969 185.605469 741.609375 180.097656 C 737.925781 174.589844 734.109375 169.175781 730.164062 163.855469 C 726.214844 158.53125 722.136719 153.3125 717.933594 148.191406 C 713.730469 143.070312 709.402344 138.054688 704.953125 133.144531 C 700.5 128.234375 695.933594 123.4375 691.25 118.75 C 686.5625 114.066406 681.765625 109.5 676.855469 105.046875 C 671.945312 100.597656 666.929688 96.269531 661.808594 92.066406 C 656.6875 87.863281 651.46875 83.785156 646.144531 79.835938 C 640.824219 75.890625 635.410156 72.074219 629.902344 68.390625 C 624.390625 64.707031 618.796875 61.164062 613.113281 57.753906 C 607.433594 54.347656 601.671875 51.078125 595.828125 47.953125 C 589.984375 44.828125 584.070312 41.847656 578.082031 39.011719 C 572.09375 36.175781 566.039062 33.488281 559.917969 30.949219 C 553.796875 28.410156 547.617188 26.019531 541.382812 23.785156 C 535.144531 21.546875 528.855469 19.464844 522.515625 17.539062 C 516.175781 15.609375 509.792969 13.839844 503.367188 12.226562 C 496.941406 10.609375 490.476562 9.152344 483.980469 7.855469 C 477.484375 6.558594 470.957031 5.417969 464.402344 4.441406 C 457.851562 3.464844 451.277344 2.644531 444.683594 1.992188 C 438.089844 1.335938 431.484375 0.839844 424.867188 0.507812 C 418.25 0.175781 411.625 0.0078125 405 0 Z M 639.351562 187.421875 L 456.449219 683.875 C 456.007812 685.070312 455.40625 686.175781 454.640625 687.191406 C 453.875 688.210938 452.980469 689.097656 451.957031 689.855469 C 450.933594 690.613281 449.824219 691.207031 448.628906 691.636719 C 447.429688 692.070312 446.195312 692.320312 444.925781 692.394531 L 444.195312 692.394531 C 442.980469 692.394531 441.792969 692.226562 440.625 691.898438 C 439.460938 691.566406 438.363281 691.082031 437.332031 690.445312 C 436.300781 689.808594 435.375 689.042969 434.554688 688.148438 C 433.738281 687.253906 433.058594 686.265625 432.515625 685.179688 L 354.125 528.40625 C 353.671875 527.5 353.328125 526.550781 353.09375 525.5625 C 352.859375 524.574219 352.742188 523.570312 352.742188 522.554688 C 352.742188 521.539062 352.859375 520.535156 353.09375 519.546875 C 353.328125 518.558594 353.671875 517.609375 354.125 516.703125 L 414.980469 394.992188 L 293.273438 455.847656 C 292.363281 456.300781 291.414062 456.648438 290.425781 456.878906 C 289.4375 457.113281 288.433594 457.230469 287.417969 457.230469 C 286.402344 457.230469 285.402344 457.113281 284.414062 456.878906 C 283.421875 456.648438 282.476562 456.300781 281.566406 455.847656 L 124.792969 377.460938 C 123.652344 376.890625 122.621094 376.167969 121.695312 375.292969 C 120.765625 374.421875 119.984375 373.433594 119.34375 372.332031 C 118.707031 371.230469 118.238281 370.058594 117.941406 368.820312 C 117.648438 367.582031 117.535156 366.328125 117.605469 365.054688 C 117.675781 363.785156 117.925781 362.550781 118.359375 361.351562 C 118.789062 360.152344 119.386719 359.042969 120.140625 358.019531 C 120.898438 356.992188 121.785156 356.097656 122.804688 355.335938 C 123.824219 354.570312 124.929688 353.96875 126.125 353.527344 L 622.578125 170.621094 C 623.746094 170.191406 624.957031 169.933594 626.199219 169.847656 C 627.445312 169.761719 628.675781 169.855469 629.894531 170.121094 C 631.113281 170.390625 632.269531 170.824219 633.363281 171.421875 C 634.460938 172.019531 635.449219 172.761719 636.328125 173.644531 C 637.210938 174.527344 637.953125 175.515625 638.550781 176.609375 C 639.152344 177.703125 639.585938 178.859375 639.851562 180.078125 C 640.121094 181.296875 640.210938 182.527344 640.125 183.773438 C 640.039062 185.019531 639.78125 186.226562 639.351562 187.398438 Z M 639.351562 187.421875 " fill-opacity="1" fill-rule="nonzero"/><g clip-path="url(#8c560cc328)"><path fill="#ffffff" d="M 137.808594 151.171875 L 145.554688 151.171875 L 145.554688 154.921875 L 137.808594 154.921875 Z M 137.808594 151.171875 " fill-opacity="1" fill-rule="nonzero"/></g></svg>