<svg xmlns="http://www.w3.org/2000/svg" xmlns:xlink="http://www.w3.org/1999/xlink" width="1080" zoomAndPan="magnify" viewBox="0 0 810 809.999993" height="1080" preserveAspectRatio="xMidYMid meet" version="1.0"><defs><clipPath id="b459c1cec4"><path d="M 448.582031 481.835938 L 493.582031 481.835938 L 493.582031 491.585938 L 448.582031 491.585938 Z M 448.582031 481.835938 " clip-rule="nonzero"/></clipPath></defs><path fill="#c39a71" d="M 457.984375 209.75 L 457.140625 209.75 C 452.855469 462.261719 418.078125 501.59375 173.503906 507.082031 L 173.503906 508.480469 C 419.410156 514 453.226562 553.757812 457.207031 809.992188 L 457.917969 809.992188 C 461.871094 555.40625 495.285156 514.519531 736.90625 508.59375 L 736.90625 506.972656 C 496.605469 501.078125 462.234375 460.628906 457.984375 209.75 " fill-opacity="1" fill-rule="nonzero"/><path fill="#c39a71" d="M 233.746094 16.839844 L 233.269531 16.839844 C 230.851562 159.316406 211.230469 181.511719 73.230469 184.605469 L 73.230469 185.398438 C 211.980469 188.511719 231.0625 210.945312 233.300781 355.519531 L 233.707031 355.519531 C 235.9375 211.875 254.792969 188.804688 391.125 185.457031 L 391.125 184.542969 C 255.535156 181.21875 236.148438 158.394531 233.746094 16.839844 " fill-opacity="1" fill-rule="nonzero"/><path fill="#c39a71" d="M 641.199219 173.941406 L 640.945312 173.941406 C 639.652344 250.328125 629.132812 262.230469 555.144531 263.890625 L 555.144531 264.308594 C 629.53125 265.980469 639.761719 278.007812 640.960938 355.519531 L 641.179688 355.519531 C 642.375 278.503906 652.484375 266.136719 725.574219 264.34375 L 725.574219 263.851562 C 652.882812 262.070312 642.484375 249.835938 641.199219 173.941406 " fill-opacity="1" fill-rule="nonzero"/><path fill="#c39a71" d="M 482.371094 0.0078125 L 482.214844 0.0078125 C 481.417969 46.894531 474.960938 54.199219 429.554688 55.214844 L 429.554688 55.476562 C 475.210938 56.5 481.484375 63.882812 482.226562 111.453125 L 482.359375 111.453125 C 483.089844 64.183594 489.300781 56.59375 534.160156 55.492188 L 534.160156 55.195312 C 489.542969 54.097656 483.164062 46.589844 482.371094 0.0078125 " fill-opacity="1" fill-rule="nonzero"/><g clip-path="url(#b459c1cec4)"><path stroke-linecap="butt" transform="matrix(0.0447761, 0, 0, 0.0447761, 448.581437, 481.85942)" fill-opacity="1" fill="#c39a71" fill-rule="nonzero" stroke-linejoin="miter" d="M 939.932612 216.96386 L 65.094007 216.96386 C 29.413015 216.96386 0.536711 188.087556 0.536711 152.406564 L 0.536711 65.079734 C 0.536711 29.398742 29.413015 0.522438 65.094007 0.522438 L 939.932612 0.522438 C 975.613604 0.522438 1004.489909 29.398742 1004.489909 65.079734 L 1004.489909 152.493803 C 1004.402669 188.087556 975.526365 216.96386 939.932612 216.96386 Z M 939.932612 216.96386 " stroke="#231f20" stroke-width="1" stroke-opacity="1" stroke-miterlimit="10"/></g></svg>