<svg xmlns="http://www.w3.org/2000/svg" xmlns:xlink="http://www.w3.org/1999/xlink" width="1080" zoomAndPan="magnify" viewBox="0 0 810 809.999993" height="1080" preserveAspectRatio="xMidYMid meet" version="1.0"><defs><clipPath id="0c1e9ce2b9"><path d="M 243 369.765625 L 288 369.765625 L 288 379.515625 L 243 379.515625 Z M 243 369.765625 " clip-rule="nonzero"/></clipPath></defs><path fill="#ffffff" d="M 810 150.71875 L 659.28125 0 L 405 254.28125 L 150.71875 0 L 0 150.71875 L 254.28125 405 L 0 659.28125 L 150.71875 810 L 405 555.71875 L 659.28125 810 L 810 659.28125 L 555.71875 405 L 810 150.71875 " fill-opacity="1" fill-rule="nonzero"/><g clip-path="url(#0c1e9ce2b9)"><path stroke-linecap="butt" transform="matrix(0.0447761, 0, 0, 0.0446152, 242.999991, 369.788087)" fill-opacity="1" fill="#ffffff" fill-rule="nonzero" stroke-linejoin="miter" d="M 939.919534 216.981061 L 65.080929 216.981061 C 29.399937 216.981061 0.523632 188.08819 0.523632 152.366094 L 0.523632 65.074602 C 0.523632 29.440061 29.399937 0.459636 65.080929 0.459636 L 939.919534 0.459636 C 975.600526 0.459636 1004.47683 29.440061 1004.47683 65.074602 L 1004.47683 152.541203 C 1004.389591 188.08819 975.513287 216.981061 939.919534 216.981061 Z M 939.919534 216.981061 " stroke="#231f20" stroke-width="1" stroke-opacity="1" stroke-miterlimit="10"/></g></svg>